G04 DipTrace 3.1.0.1*
G04 BOARD.gtl*
%MOIN*%
G04 #@! TF.FileFunction,Copper,L1,Top*
G04 #@! TF.Part,Single*
G04 #@! TA.AperFunction,Conductor*
%ADD11C,0.006*%
%ADD15R,0.043307X0.03937*%
%ADD16R,0.051181X0.059055*%
G04 #@! TA.AperFunction,ComponentPad*
%ADD17R,0.066929X0.066929*%
%ADD18C,0.066929*%
%ADD19R,0.070866X0.015748*%
%ADD20R,0.098425X0.137795*%
G04 #@! TA.AperFunction,ViaPad*
%ADD21C,0.04*%
%FSLAX26Y26*%
G04*
G70*
G90*
G75*
G01*
G04 Top*
%LPD*%
X750249Y547297D2*
D11*
X678202D1*
X531499Y694000D1*
X500249D1*
X973429Y1012749D2*
Y852070D1*
X975249Y850249D1*
X973429Y1012749D2*
Y1027068D1*
X943999Y1056499D1*
X875248D1*
X837749Y1019000D1*
X779678D1*
Y1012749D1*
X975249Y850249D2*
Y769000D1*
X750249Y598478D2*
X689521D1*
X587749Y700249D1*
Y806500D1*
X500249Y894000D1*
X900446Y850249D2*
Y819197D1*
X881499Y800249D1*
X731500D1*
X712749Y819000D1*
Y850249D1*
X731499Y762749D2*
Y801425D1*
X750249Y675249D2*
X700249D1*
X643999Y731500D1*
Y1075249D1*
X525249Y1194000D1*
X500249D1*
X750249Y649659D2*
X694589D1*
X625249Y718999D1*
Y987749D1*
X518999Y1094000D1*
X500249D1*
X750249Y624068D2*
X695181D1*
X606499Y712751D1*
Y912748D1*
X525248Y994000D1*
X500249D1*
X750249Y521706D2*
X672542D1*
X600248Y594000D1*
X500249D1*
X750249Y496115D2*
Y494000D1*
X681500D1*
X500249D1*
X978596Y675249D2*
X1012749D1*
X1056499Y718999D1*
Y1050249D1*
X1200249Y1194000D1*
X978596Y649659D2*
X1018409D1*
X1075249Y706499D1*
Y969000D1*
X1200249Y1094000D1*
X978596Y624068D2*
X1024068D1*
X1093999Y693999D1*
Y887749D1*
X1200249Y994000D1*
X978596Y598478D2*
X1023478D1*
X1112749Y687749D1*
Y806500D1*
X1200249Y894000D1*
X978596Y572887D2*
X1022887D1*
X1131499Y681499D1*
Y725249D1*
X1200249Y794000D1*
X978596Y547297D2*
X1028546D1*
X1175249Y694000D1*
X1200249D1*
X978596Y521706D2*
X996707D1*
X994000Y518999D1*
X1031500D1*
X1106501Y594000D1*
X1200249D1*
X978604Y496115D2*
X979383D1*
X981499Y494000D1*
X1200249D1*
X712749Y1012749D2*
Y1006500D1*
X744000Y975249D1*
X850249D1*
X887749Y1012749D1*
X906500D1*
X787552Y850249D2*
X819000D1*
X850249Y881499D1*
Y975249D1*
X787552Y850249D2*
Y875052D1*
X800249Y887749D1*
Y919000D1*
X500249Y794000D2*
X525249D1*
X568999Y750249D1*
Y687749D1*
X681499Y575249D1*
X747887D1*
X750249Y572887D1*
D21*
X731499Y762749D3*
X800249Y919000D3*
X975249Y769000D3*
D15*
X712749Y1012749D3*
X779678D3*
X906500D3*
X973429D3*
D16*
X975249Y850249D3*
X900446D3*
D17*
X500249Y1194000D3*
D18*
Y1094000D3*
Y994000D3*
Y894000D3*
Y794000D3*
Y694000D3*
Y594000D3*
Y494000D3*
D17*
X1200249Y1194000D3*
D18*
Y1094000D3*
Y994000D3*
Y894000D3*
Y794000D3*
Y694000D3*
Y594000D3*
Y494000D3*
D16*
X712749Y850249D3*
X787552D3*
D19*
X750249Y675249D3*
Y649659D3*
Y624068D3*
Y598478D3*
Y572887D3*
Y547297D3*
Y521706D3*
Y496115D3*
X978604D3*
X978596Y521706D3*
Y547297D3*
Y572887D3*
Y598478D3*
Y624068D3*
Y649659D3*
Y675249D3*
D20*
X864427Y585682D3*
M02*
